<?xml version="1.0" encoding="UTF-8"?>
<svg width="160px" height="160px" viewBox="0 0 160 160" version="1.1" xmlns="http://www.w3.org/2000/svg" xmlns:xlink="http://www.w3.org/1999/xlink">
    <!-- Generator: Sketch 63.1 (92452) - https://sketch.com -->
    <title>Combined Shape</title>
    <desc>Created with Sketch.</desc>
    <g id="Page-1" stroke="none" stroke-width="1" fill="none" fill-rule="evenodd">
        <g id="Website-02" transform="translate(-560.000000, -200.000000)" fill="#FF3339" stroke="#FFFFFF" stroke-width="2">
            <g id="Group-16" transform="translate(415.000000, 114.000000)">
                <g id="Group-6" transform="translate(46.000000, 86.000000)">
                    <g id="001-qr" transform="translate(99.000000, 0.000000)">
                        <g id="Group-5">
                            <path d="M4.1015625,135.570312 C3.24491092,135.570312 2.46948814,135.917323 1.90824935,136.478562 C1.34701056,137.039801 1,137.815223 1,138.671875 L1.00501078,156.076752 C1.05089462,156.890063 1.41047946,157.619392 1.96428481,158.146202 C2.52053034,158.675334 3.27306337,159 4.1015625,159 L21.5053904,158.994988 C22.3187693,158.949097 23.0480071,158.589501 23.5747449,158.035765 C24.1039366,157.47945 24.4285937,156.726842 24.4285937,155.898438 C24.4285937,155.041786 24.0815831,154.266363 23.5203443,153.705124 C22.9591055,153.143886 22.1836828,152.796875 21.3270312,152.796875 L7.20350152,152.796875 L7.19811508,138.493557 C7.15223463,137.680162 6.79263528,136.950908 6.23889029,136.424161 C5.68257507,135.89497 4.9299667,135.570312 4.1015625,135.570312 Z M155.898437,135.570312 C155.041786,135.570312 154.266363,135.917323 153.705124,136.478562 C153.143886,137.039801 152.796875,137.815223 152.796875,138.671875 L152.796875,152.796875 L138.672422,152.796875 C137.816072,152.796875 137.040599,153.144044 136.47925,153.705393 C135.918044,154.266599 135.570859,155.041898 135.570859,155.898438 C135.570859,156.754826 135.918123,157.53015 136.479384,158.091411 C137.040717,158.652744 137.816128,159 138.672422,159 L155.898437,159 C156.754882,159 157.530268,158.652823 158.091546,158.091546 C158.652823,157.530268 159,156.754882 159,155.898438 L159,138.671875 C159,137.815279 158.652902,137.039919 158.09168,136.478696 C157.530386,135.917402 156.754938,135.570312 155.898437,135.570312 Z M21.3270312,1 L4.1015625,1 C3.24491092,1 2.46948814,1.34701056 1.90824935,1.90824935 C1.34701056,2.46948814 1,3.24491092 1,4.1015625 L1,21.328125 C1,22.1846257 1.34708963,22.9600733 1.90838375,23.5213674 C2.46960613,24.0825898 3.24496692,24.4296875 4.1015625,24.4296875 C4.95800727,24.4296875 5.73339284,24.0825107 6.29467054,23.521233 C6.85594823,22.9599553 7.203125,22.1845698 7.203125,21.328125 L7.203125,7.203125 L21.3270312,7.203125 C22.1836268,7.203125 22.9589876,6.85602732 23.5202099,6.29480494 C24.081504,5.73351083 24.4285937,4.95806325 24.4285937,4.1015625 C24.4285937,3.24491092 24.0815831,2.46948814 23.5203443,1.90824935 C22.9591055,1.34701056 22.1836828,1 21.3270312,1 Z M155.898437,1 L138.494161,1.00501078 C137.680964,1.05090066 136.951597,1.41055848 136.424726,1.96442111 C135.895606,2.52064735 135.570859,3.27311954 135.570859,4.1015625 C135.570859,4.95795128 135.918123,5.73327485 136.479384,6.29453613 C137.040717,6.85586914 137.816128,7.203125 138.672422,7.203125 L152.796499,7.203125 L152.801883,21.506398 C152.847757,22.3197258 153.207345,23.0490703 153.76116,23.5758895 C154.317405,24.105021 155.069938,24.4296875 155.898437,24.4296875 C156.754882,24.4296875 157.530268,24.0825107 158.091546,23.521233 C158.652823,22.9599553 159,22.1845698 159,21.328125 L158.994988,3.92320327 C158.949097,3.1098244 158.589501,2.38058661 158.035765,1.85384876 C157.47945,1.3246571 156.726842,1 155.898437,1 Z" id="Combined-Shape"></path>
                        </g>
                    </g>
                </g>
            </g>
        </g>
    </g>
</svg>